<svg xmlns="http://www.w3.org/2000/svg" viewBox="0 0 220 150" role="img" aria-labelledby="title desc">
  <title id="title">Eden hedgehog sprite</title>
  <desc id="desc">A small calm hedgehog for the Eden garden scene.</desc>
  <defs>
    <radialGradient id="body" cx="45%" cy="42%" r="70%">
      <stop offset="0%" stop-color="#8b6a45"/>
      <stop offset="60%" stop-color="#5d442c"/>
      <stop offset="100%" stop-color="#332414"/>
    </radialGradient>
    <linearGradient id="face" x1="0%" y1="0%" x2="100%" y2="100%">
      <stop offset="0%" stop-color="#e2c293"/>
      <stop offset="100%" stop-color="#b88f61"/>
    </linearGradient>
    <filter id="softShadow" x="-20%" y="-20%" width="140%" height="160%">
      <feDropShadow dx="0" dy="8" stdDeviation="7" flood-color="#000000" flood-opacity="0.28"/>
    </filter>
  </defs>
  <g filter="url(#softShadow)">
    <path d="M32 93 C34 52 73 24 122 28 C167 31 199 59 204 95 C191 121 151 133 96 129 C58 126 36 113 32 93Z" fill="url(#body)"/>
    <path d="M27 86 C32 65 50 54 78 54 C103 54 123 67 132 88 C121 112 92 124 59 117 C37 112 25 101 27 86Z" fill="url(#face)"/>
    <path d="M61 55 C78 39 98 33 125 31" fill="none" stroke="#d7b47e" stroke-width="5" stroke-linecap="round" opacity="0.42"/>
    <path d="M86 37 L78 18 L98 34 L97 12 L112 32 L121 13 L128 35 L145 18 L142 42 L164 31 L153 51 L179 49 L159 63 L186 72 L158 78 L178 95 L149 91 L155 118 L132 99 L124 129 L111 102 L94 126 L91 98 L66 112 L78 87 L49 88 L75 74 L52 62 Z" fill="#46311e" opacity="0.9"/>
    <path d="M27 86 C32 65 50 54 78 54 C103 54 123 67 132 88 C121 112 92 124 59 117 C37 112 25 101 27 86Z" fill="url(#face)"/>
    <circle cx="62" cy="78" r="5" fill="#20170f"/>
    <circle cx="37" cy="92" r="5" fill="#1d130d"/>
    <path d="M42 100 C50 108 65 110 76 103" fill="none" stroke="#62452b" stroke-width="4" stroke-linecap="round"/>
    <path d="M78 55 C71 42 57 42 50 55" fill="#bd9364"/>
    <path d="M78 56 C72 49 62 48 56 57" fill="#735236" opacity="0.35"/>
    <ellipse cx="74" cy="125" rx="10" ry="5" fill="#3a2818"/>
    <ellipse cx="144" cy="127" rx="12" ry="5" fill="#2f2115"/>
  </g>
</svg>
